<svg version="1.2" xmlns="http://www.w3.org/2000/svg" viewBox="0 0 123 109" width="500" height="443">
	<title>stars-svg</title>
	<defs>
		<filter x="-50%" y="-50%" width="200%" height="200%" id="f1" ><feDropShadow dx="0" dy="0" stdDeviation="2.0833333333333335" flood-color="#ffffbd" flood-opacity="1.6"/></filter>
	</defs>
	<style>
		.s0 { filter: url(#f1);fill: #ffc201 } 
	</style>
	<path id="Layer" fill-rule="evenodd" class="s0" d="m95.2 91.4h-0.8q-0.3 0-0.6-0.1-0.3-0.2-0.6-0.4-0.2-0.2-0.3-0.5-0.1-0.3-0.2-0.7 0.1-1.1 0-2.3-0.2-1.2-0.4-2.3-0.2-1.2-0.6-2.3-0.3-1.1-0.8-2.2-1-2.2-2.4-4.2-1.3-2-3.1-3.7-1.7-1.7-3.7-3.1-2-1.4-4.2-2.4-1.1-0.5-2.2-0.8-1.1-0.4-2.2-0.6-1.2-0.2-2.4-0.3-1.1-0.1-2.3-0.1-0.3 0-0.6-0.1-0.3-0.2-0.6-0.4-0.2-0.2-0.3-0.5-0.1-0.3-0.1-0.7v-0.8q0-0.3 0.1-0.6 0.1-0.3 0.3-0.6 0.3-0.2 0.6-0.3 0.3-0.1 0.6-0.2 1.2 0.1 2.3-0.1 1.2-0.1 2.4-0.3 1.1-0.2 2.2-0.6 1.1-0.3 2.2-0.8 1.1-0.5 2.2-1.1 1.1-0.5 2-1.2 1-0.7 2-1.5 0.9-0.8 1.7-1.7 0.9-0.8 1.7-1.7 0.8-1 1.5-2 0.7-1 1.3-2 0.5-1.1 1-2.2 0.5-1.1 0.8-2.2 0.4-1.1 0.6-2.3 0.2-1.1 0.4-2.3 0.1-1.1 0-2.3 0.1-0.3 0.2-0.6 0.1-0.3 0.3-0.6 0.3-0.2 0.6-0.3 0.3-0.1 0.6-0.2h0.8q0.4 0.1 0.7 0.2 0.3 0.1 0.5 0.3 0.2 0.3 0.4 0.6 0.1 0.3 0.1 0.6 0 1.2 0.1 2.3 0.1 1.2 0.3 2.3 0.3 1.2 0.6 2.3 0.3 1.1 0.8 2.2 0.5 1.1 1.1 2.2 0.6 1 1.3 2 0.7 1 1.4 2 0.8 0.9 1.7 1.7 0.8 0.9 1.8 1.7 0.9 0.8 1.9 1.5 1 0.6 2 1.2 1.1 0.6 2.2 1.1 1.1 0.5 2.2 0.8 1.1 0.4 2.3 0.6 1.1 0.2 2.3 0.3 1.2 0.1 2.3 0.1 0.4 0 0.7 0.2 0.3 0.1 0.5 0.3 0.2 0.3 0.4 0.6 0.1 0.3 0.1 0.6v0.8q0 0.4-0.1 0.7-0.2 0.3-0.4 0.5-0.2 0.2-0.5 0.3-0.3 0.2-0.7 0.2-1.1 0-2.3 0.1-1.2 0.1-2.3 0.3-1.2 0.2-2.3 0.6-1.1 0.3-2.2 0.8-2.2 1-4.2 2.4-2 1.4-3.7 3.1-1.7 1.7-3.1 3.7-1.4 2-2.4 4.2-0.5 1.1-0.8 2.2-0.3 1.1-0.6 2.3-0.2 1.1-0.3 2.3-0.1 1.2-0.1 2.3 0 0.4-0.1 0.7-0.2 0.3-0.4 0.5-0.2 0.2-0.5 0.4-0.3 0.1-0.7 0.1zm-61.6-25.2h-1q-0.3 0-0.6-0.1-0.3-0.1-0.5-0.3-0.3-0.3-0.4-0.6-0.1-0.3-0.1-0.6 0-1.4-0.1-2.8-0.2-1.4-0.4-2.8-0.3-1.4-0.7-2.7-0.4-1.4-1-2.7-0.6-1.3-1.3-2.6-0.7-1.3-1.5-2.5-0.9-1.2-1.8-2.3-0.9-1.1-2-2.1-1-1.1-2.1-2-1.1-1-2.3-1.8-1.2-0.8-2.5-1.5-1.3-0.8-2.6-1.4-1.3-0.5-2.7-0.9-1.3-0.4-2.7-0.7-1.4-0.3-2.8-0.4-1.4-0.1-2.8-0.1-0.4 0-0.7-0.1-0.3-0.2-0.5-0.4-0.2-0.2-0.4-0.5-0.1-0.3-0.1-0.7v-1q0-0.3 0.1-0.6 0.2-0.3 0.4-0.5 0.2-0.2 0.5-0.4 0.3-0.1 0.6-0.1 1.5 0 2.9-0.1 1.4-0.2 2.8-0.4 1.3-0.3 2.7-0.7 1.3-0.4 2.6-1 1.4-0.6 2.7-1.3 1.2-0.7 2.4-1.5 1.2-0.9 2.3-1.8 1.2-1 2.2-2 1-1 2-2.1 0.9-1.2 1.7-2.4 0.9-1.2 1.6-2.5 0.7-1.2 1.3-2.6 0.5-1.3 1-2.6 0.4-1.4 0.7-2.8 0.2-1.3 0.4-2.7 0.1-1.4 0.1-2.9 0-0.3 0.1-0.6 0.1-0.3 0.4-0.5 0.2-0.2 0.5-0.4 0.3-0.1 0.6-0.1h1q0.3 0 0.6 0.1 0.3 0.2 0.6 0.4 0.2 0.2 0.3 0.5 0.2 0.3 0.2 0.6-0.1 1.5 0.1 2.9 0.1 1.4 0.4 2.8 0.3 1.3 0.7 2.7 0.4 1.3 1 2.6 0.5 1.4 1.2 2.7 0.8 1.2 1.6 2.4 0.8 1.2 1.8 2.3 0.9 1.2 1.9 2.2 1.1 1 2.2 2 1.1 0.9 2.3 1.7 1.2 0.9 2.5 1.6 1.3 0.7 2.6 1.3 1.3 0.5 2.6 1 1.4 0.4 2.8 0.6 1.4 0.3 2.8 0.5 1.4 0.1 2.8 0.1 0.3 0 0.6 0.1 0.3 0.1 0.6 0.4 0.2 0.2 0.3 0.5 0.1 0.3 0.1 0.6v1q0 0.3-0.1 0.7-0.1 0.3-0.3 0.5-0.3 0.2-0.6 0.3-0.3 0.2-0.6 0.2-1.4 0-2.8 0.1-1.4 0.1-2.8 0.4-1.4 0.3-2.8 0.7-1.3 0.4-2.6 0.9-2.7 1.3-5.1 2.9-2.4 1.7-4.4 3.8-2.1 2-3.8 4.4-1.6 2.4-2.8 5.1-0.6 1.3-1 2.7-0.4 1.3-0.7 2.7-0.3 1.4-0.4 2.8-0.1 1.4-0.1 2.8 0 0.3-0.2 0.6-0.1 0.3-0.3 0.6-0.2 0.2-0.5 0.3-0.3 0.2-0.7 0.2zm-1.8-14q0.2 0.5 0.4 1 0.2 0.4 0.3 0.9 0.2 0.5 0.3 0.9 0.2 0.5 0.3 1 0.2-0.5 0.3-1 0.2-0.4 0.3-0.9 0.2-0.5 0.4-0.9 0.1-0.5 0.3-1 1.4-2.9 3.2-5.6 1.8-2.7 4.1-4.9 2.3-2.3 5-4.2 2.7-1.8 5.6-3.2 0.5-0.2 0.9-0.3 0.5-0.2 1-0.4 0.4-0.1 0.9-0.3 0.5-0.1 1-0.3-0.5-0.1-1-0.3-0.5-0.1-0.9-0.3-0.5-0.1-1-0.3-0.4-0.2-0.9-0.4-1.5-0.6-2.9-1.4-1.4-0.8-2.7-1.7-1.3-0.9-2.6-2-1.2-1-2.4-2.2-1.1-1.1-2.2-2.4-1-1.2-1.9-2.5-0.9-1.4-1.7-2.8-0.8-1.4-1.5-2.9-0.2-0.4-0.3-0.9-0.2-0.5-0.4-0.9-0.2-0.5-0.3-1-0.1-0.4-0.3-0.9-0.1 0.4-0.3 0.9-0.1 0.5-0.3 1-0.1 0.4-0.3 0.9-0.2 0.4-0.4 0.9-0.6 1.5-1.4 2.9-0.8 1.4-1.7 2.8-1 1.3-2 2.5-1 1.3-2.2 2.4-1.1 1.2-2.4 2.2-1.2 1-2.5 2-1.4 0.9-2.8 1.7-1.4 0.8-2.9 1.4-0.4 0.2-0.9 0.4-0.5 0.2-0.9 0.3-0.5 0.2-1 0.4-0.5 0.1-0.9 0.2 0.4 0.2 0.9 0.3 0.5 0.2 1 0.3 0.4 0.2 0.9 0.4 0.5 0.2 0.9 0.4 1.5 0.6 2.9 1.4 1.4 0.8 2.8 1.7 1.3 0.9 2.5 2 1.3 1 2.4 2.2 1.1 1.1 2.2 2.3 1 1.3 2 2.6 0.9 1.3 1.7 2.7 0.8 1.5 1.4 2.9zm14.7 56.4h-0.5q-0.3 0-0.6-0.1-0.3-0.2-0.6-0.4-0.2-0.2-0.3-0.5-0.1-0.3-0.1-0.6 0-0.7-0.1-1.4-0.1-0.7-0.2-1.4-0.1-0.7-0.3-1.3-0.2-0.7-0.5-1.3-0.6-1.3-1.4-2.5-0.9-1.2-1.9-2.3-1-1-2.2-1.8-1.2-0.8-2.5-1.4-0.6-0.3-1.3-0.5-0.7-0.2-1.4-0.3-0.6-0.2-1.3-0.2-0.7-0.1-1.4-0.1-0.3 0-0.6-0.1-0.3-0.1-0.5-0.4-0.3-0.2-0.4-0.5-0.1-0.3-0.1-0.6v-0.5q0-0.4 0.1-0.7 0.1-0.3 0.4-0.5 0.2-0.2 0.5-0.3 0.3-0.2 0.6-0.2 0.7 0 1.4 0 0.7-0.1 1.4-0.2 0.6-0.2 1.3-0.4 0.7-0.2 1.3-0.4 1.3-0.6 2.5-1.5 1.2-0.8 2.2-1.8 1.1-1 1.9-2.2 0.8-1.2 1.4-2.5 0.3-0.7 0.5-1.3 0.2-0.7 0.3-1.4 0.1-0.7 0.2-1.3 0.1-0.7 0.1-1.4 0-0.3 0.1-0.6 0.1-0.3 0.3-0.6 0.3-0.2 0.6-0.3 0.3-0.2 0.6-0.2h0.5q0.4 0 0.7 0.2 0.3 0.1 0.5 0.3 0.2 0.2 0.3 0.5 0.2 0.3 0.2 0.7 0 0.7 0 1.4 0.1 0.6 0.2 1.3 0.2 0.7 0.4 1.4 0.2 0.6 0.4 1.3 0.6 1.3 1.5 2.5 0.8 1.2 1.8 2.2 1 1 2.2 1.8 1.2 0.9 2.5 1.5 0.7 0.2 1.4 0.4 0.6 0.3 1.3 0.4 0.7 0.1 1.4 0.2 0.7 0 1.3 0 0.4 0 0.7 0.2 0.3 0.1 0.5 0.3 0.2 0.3 0.4 0.6 0.1 0.3 0.1 0.6v0.5q0 0.3-0.1 0.6-0.2 0.3-0.4 0.6-0.2 0.2-0.5 0.3-0.3 0.1-0.7 0.2-0.6-0.1-1.3 0-0.7 0.1-1.4 0.2-0.7 0.1-1.3 0.3-0.7 0.3-1.4 0.5-0.6 0.3-1.3 0.7-0.6 0.3-1.2 0.7-0.6 0.5-1.1 0.9-0.6 0.5-1.1 1l-0.1 0.1q-0.5 0.5-0.9 1-0.5 0.6-0.9 1.1-0.4 0.6-0.7 1.2-0.4 0.7-0.7 1.3-0.2 0.6-0.4 1.3-0.2 0.7-0.4 1.3-0.1 0.7-0.2 1.4 0 0.7 0 1.4 0 0.3-0.2 0.6-0.1 0.3-0.3 0.6-0.2 0.2-0.6 0.3-0.3 0.1-0.6 0.1zm-4.2-14q0.6 0.6 1.2 1.2 0.6 0.7 1.1 1.4 0.5 0.7 0.9 1.5 0.4 0.7 0.7 1.5 0.4-0.8 0.8-1.5 0.4-0.7 0.9-1.4 0.5-0.7 1-1.4 0.6-0.6 1.2-1.2l0.1-0.1q0.6-0.6 1.2-1.2 0.7-0.6 1.4-1 0.7-0.5 1.5-1 0.7-0.4 1.5-0.7-1.5-0.8-3-1.7-1.4-1-2.6-2.3-1.3-1.2-2.2-2.6-1-1.4-1.8-3-0.3 0.8-0.7 1.5-0.4 0.8-0.9 1.5-0.5 0.7-1.1 1.4-0.6 0.6-1.2 1.2-0.6 0.6-1.2 1.2-0.7 0.6-1.4 1.1-0.7 0.4-1.5 0.9-0.7 0.4-1.5 0.8 0.8 0.3 1.5 0.7 0.8 0.5 1.5 0.9 0.7 0.5 1.4 1.1 0.6 0.6 1.2 1.2zm51.7-15.3q0.5 1.1 0.9 2.3 0.3-1.2 0.8-2.3 1.1-2.5 2.7-4.8 1.6-2.2 3.5-4.2 1.9-1.9 4.2-3.5 2.3-1.5 4.8-2.7 1.1-0.5 2.3-0.8-0.3-0.1-0.6-0.2-0.3-0.1-0.6-0.2-0.3-0.1-0.6-0.3-0.2-0.1-0.5-0.2-1.3-0.5-2.5-1.2-1.2-0.7-2.3-1.5-1.2-0.7-2.2-1.6-1.1-0.9-2-1.9-1-0.9-1.9-2-0.9-1.1-1.7-2.2-0.7-1.1-1.4-2.3-0.7-1.2-1.2-2.5-0.5-1.1-0.9-2.3-0.4 1.2-0.9 2.3-0.5 1.3-1.2 2.5-0.6 1.2-1.4 2.3-0.8 1.1-1.7 2.2-0.9 1-1.8 2-1 1-2.1 1.9-1 0.9-2.1 1.6-1.2 0.8-2.4 1.5-1.2 0.7-2.4 1.2-1.2 0.5-2.4 0.9 1.2 0.3 2.4 0.8 2.5 1.1 4.7 2.7 2.3 1.6 4.3 3.5 1.9 1.9 3.5 4.2 1.6 2.3 2.7 4.8z"/>
</svg>